<svg width="32" height="32" viewBox="0 0 32 32" xmlns="http://www.w3.org/2000/svg">
  <rect width="32" height="32" fill="black"/>
  <path d="M20 8c0 2.5 2 4.5 4.5 4.5V16c-1.5 0-3-.5-4-1.5V20c0 4-3 7-7 7s-7-3-7-7 3-7 7-7v3.5c-2 0-3.5 1.5-3.5 3.5s1.5 3.5 3.5 3.5 3.5-1.5 3.5-3.5V8h3z" fill="#00F2EA"/>
  <path d="M20 8c0 2.5 2 4.5 4.5 4.5V16c-1.5 0-3-.5-4-1.5V20c0 4-3 7-7 7s-7-3-7-7 3-7 7-7v3.5c-2 0-3.5 1.5-3.5 3.5s1.5 3.5 3.5 3.5 3.5-1.5 3.5-3.5V8h3z" fill="#FF0050" transform="translate(1, 1)"/>
</svg>
